<svg width="24" height="24" viewBox="0 0 24 24" fill="none" xmlns="http://www.w3.org/2000/svg">
<circle cx="12" cy="9" r="1.5" stroke="#9E9E9E" stroke-linecap="round"/>
<path d="M15.701 8.25C15.8999 7.90547 16.2275 7.65408 16.6118 7.55111C16.996 7.44815 17.4055 7.50205 17.75 7.70096C18.0945 7.89987 18.3459 8.2275 18.4489 8.61177C18.5519 8.99604 18.498 9.40547 18.299 9.75C18.1001 10.0945 17.7725 10.3459 17.3882 10.4489C17.004 10.5519 16.5945 10.498 16.25 10.299C15.9055 10.1001 15.6541 9.7725 15.5511 9.38823C15.4481 9.00396 15.502 8.59453 15.701 8.25L15.701 8.25Z" stroke="#9E9E9E"/>
<path d="M5.70096 8.25C5.89987 7.90547 6.2275 7.65408 6.61177 7.55111C6.99604 7.44815 7.40547 7.50205 7.75 7.70096C8.09453 7.89987 8.34592 8.2275 8.44889 8.61177C8.55185 8.99604 8.49795 9.40547 8.29904 9.75C8.10013 10.0945 7.7725 10.3459 7.38823 10.4489C7.00396 10.5519 6.59453 10.498 6.25 10.299C5.90547 10.1001 5.65408 9.7725 5.55111 9.38823C5.44815 9.00396 5.50205 8.59453 5.70096 8.25L5.70096 8.25Z" stroke="#9E9E9E"/>
<path d="M16.5005 12.5L16.5005 12H16.5005V12.5ZM20.3638 15.5127L20.8501 15.3964L20.85 15.3962L20.3638 15.5127ZM19.5005 16.5V17H19.5007L19.5005 16.5ZM14.5005 16.5L14.5003 16L14.5005 17V16.5ZM15.3804 15.5098L15.8697 15.407L15.8697 15.4069L15.3804 15.5098ZM14.1001 13.1855L13.8094 12.7787L13.2771 13.159L13.7839 13.5728L14.1001 13.1855ZM16.5005 12.5L16.5005 13C17.7263 13.0001 18.4897 13.4089 18.9822 13.912C19.4883 14.429 19.7474 15.0863 19.8775 15.6292L20.3638 15.5127L20.85 15.3962C20.6962 14.7546 20.3755 13.9057 19.6968 13.2125C19.0046 12.5054 17.9782 12.0001 16.5005 12L16.5005 12.5ZM20.3638 15.5127L19.8775 15.629C19.901 15.7274 19.8755 15.807 19.8168 15.8718C19.7527 15.9424 19.6414 15.9999 19.5003 16L19.5005 16.5L19.5007 17C20.3001 16.9997 21.0703 16.3171 20.8501 15.3964L20.3638 15.5127ZM19.5005 16.5V16H14.5005V16.5V17H19.5005V16.5ZM14.5005 16.5L14.5007 17C15.3044 16.9997 16.0614 16.3192 15.8697 15.407L15.3804 15.5098L14.8911 15.6126C14.9127 15.7156 14.8843 15.8011 14.8216 15.8694C14.7544 15.9427 14.6412 15.9999 14.5003 16L14.5005 16.5ZM15.3804 15.5098L15.8697 15.4069C15.7085 14.6399 15.33 13.5443 14.4163 12.7983L14.1001 13.1855L13.7839 13.5728C14.4369 14.106 14.7484 14.9337 14.8911 15.6126L15.3804 15.5098ZM14.1001 13.1855L14.3908 13.5924C14.8687 13.2509 15.5405 13 16.5005 13V12.5V12C15.3548 12 14.4746 12.3035 13.8094 12.7787L14.1001 13.1855Z" fill="#9E9E9E"/>
<path d="M7.50049 12.5L7.50051 12H7.50049V12.5ZM9.8999 13.1865L10.2162 13.5737L10.7227 13.16L10.1906 12.7797L9.8999 13.1865ZM8.61963 15.5098L8.13032 15.4069L8.13031 15.407L8.61963 15.5098ZM3.63623 15.5127L3.15 15.3962L3.14994 15.3964L3.63623 15.5127ZM7.50049 12.5L7.50047 13C8.46 13 9.13098 13.2516 9.6092 13.5933L9.8999 13.1865L10.1906 12.7797C9.5258 12.3046 8.64665 12.0001 7.50051 12L7.50049 12.5ZM9.8999 13.1865L9.58356 12.7993C8.67062 13.5452 8.29157 14.6397 8.13032 15.4069L8.61963 15.5098L9.10894 15.6126C9.25152 14.9342 9.56343 14.1071 10.2162 13.5737L9.8999 13.1865ZM8.61963 15.5098L8.13031 15.407C7.93858 16.3198 8.69702 17 9.50049 17V16.5V16C9.35947 16 9.24605 15.9427 9.17861 15.8693C9.11572 15.8008 9.08736 15.7153 9.10895 15.6125L8.61963 15.5098ZM9.50049 16.5V16H4.50049V16.5V17H9.50049V16.5ZM4.50049 16.5V16C4.35926 16 4.24768 15.9424 4.18344 15.8717C4.12456 15.8068 4.09906 15.7271 4.12252 15.629L3.63623 15.5127L3.14994 15.3964C2.92968 16.3177 3.70129 17 4.50049 17V16.5ZM3.63623 15.5127L4.12246 15.6292C4.25258 15.0864 4.51182 14.429 5.01811 13.912C5.51087 13.4088 6.27449 13 7.50049 13V12.5V12C6.02263 12 4.99608 12.5053 4.30365 13.2123C3.62475 13.9056 3.30379 14.7545 3.15 15.3962L3.63623 15.5127Z" fill="#9E9E9E"/>
<path d="M12 12.5C14.3642 12.5 15.1314 14.3251 15.3804 15.5097C15.494 16.0501 15.0523 16.5 14.5 16.5H9.5C8.94772 16.5 8.50601 16.0501 8.61961 15.5097C8.86859 14.3251 9.63581 12.5 12 12.5Z" stroke="#9E9E9E" stroke-linecap="round"/>
<path d="M18.5 21.5H20C20.8284 21.5 21.5 20.8284 21.5 20V18.5" stroke="#9E9E9E" stroke-linecap="round"/>
<path d="M18.5 2.5H20C20.8284 2.5 21.5 3.17157 21.5 4V5.5" stroke="#9E9E9E" stroke-linecap="round"/>
<path d="M5.5 21.5H4C3.17157 21.5 2.5 20.8284 2.5 20V18.5" stroke="#9E9E9E" stroke-linecap="round"/>
<path d="M5.5 2.5H4C3.17157 2.5 2.5 3.17157 2.5 4V5.5" stroke="#9E9E9E" stroke-linecap="round"/>
</svg>
