<svg width="158" height="14" viewBox="0 0 158 14" fill="none" xmlns="http://www.w3.org/2000/svg">
<path d="M0 13.7136V0.286445H3.36873C4.40059 0.286445 5.22001 0.590792 5.82699 1.19949C6.43397 1.80222 6.73746 2.60188 6.73746 3.59847V5.7468C6.73746 6.37937 6.61 6.93734 6.35506 7.42072C6.10013 7.90409 5.73595 8.29497 5.2625 8.59335L5.08041 7.80563C5.60848 7.99062 6.01516 8.26513 6.30044 8.62916C6.59179 8.99318 6.73746 9.43478 6.73746 9.95396V13.7136H4.2792V9.95396C4.2792 9.68542 4.20029 9.47059 4.04248 9.30946C3.88466 9.14237 3.66008 9.05882 3.36873 9.05882H2.45826V13.7136H0ZM2.45826 6.64194H3.36873C3.66008 6.64194 3.88466 6.56138 4.04248 6.40026C4.20029 6.23316 4.2792 6.01535 4.2792 5.7468V3.59847C4.2792 3.32992 4.20029 3.11509 4.04248 2.95396C3.88466 2.78687 3.66008 2.70333 3.36873 2.70333H2.45826V6.64194Z" fill="white"/>
<path d="M18.1894 0.286445V2.70333H15.0028V5.38875H17.6978V7.80563H15.0028V11.2967H18.1894V13.7136H12.5445V0.286445H18.1894Z" fill="white"/>
<path d="M26.616 14C25.5902 14 24.7707 13.6957 24.1577 13.087C23.5507 12.4783 23.2472 11.6786 23.2472 10.688V9.97187H25.7055V10.688C25.7055 10.9565 25.7844 11.1743 25.9422 11.3414C26.1 11.5026 26.3246 11.5831 26.616 11.5831C26.9073 11.5831 27.1319 11.5026 27.2897 11.3414C27.4475 11.1743 27.5264 10.9565 27.5264 10.688V9.30946C27.5264 9.15431 27.5204 9.03197 27.5082 8.94245C27.4961 8.85294 27.4627 8.78133 27.4081 8.72762C27.3595 8.67391 27.2715 8.62617 27.144 8.5844C27.0226 8.53666 26.8466 8.47997 26.616 8.41432C25.7723 8.16368 25.1198 7.95183 24.6585 7.77877C24.1971 7.59974 23.8663 7.40878 23.666 7.20588C23.4657 7.00298 23.3443 6.74041 23.3019 6.41816C23.2654 6.08994 23.2472 5.65132 23.2472 5.1023V3.31202C23.2472 2.31543 23.5507 1.51577 24.1577 0.913043C24.7707 0.304348 25.5902 0 26.616 0C27.6478 0 28.4672 0.304348 29.0742 0.913043C29.6812 1.51577 29.9847 2.31543 29.9847 3.31202V4.02813H27.5264V3.31202C27.5264 3.04348 27.4475 2.82864 27.2897 2.66752C27.1319 2.50043 26.9073 2.41688 26.616 2.41688C26.3246 2.41688 26.1 2.50043 25.9422 2.66752C25.7844 2.82864 25.7055 3.04348 25.7055 3.31202V5.1023C25.7055 5.25746 25.7116 5.3798 25.7237 5.46931C25.7358 5.55882 25.7662 5.63044 25.8147 5.68414C25.8694 5.73785 25.9604 5.78858 26.0879 5.83632C26.2154 5.87809 26.3914 5.9318 26.616 5.99744C27.4597 6.24808 28.1122 6.46292 28.5735 6.64194C29.0348 6.815 29.3656 7.00298 29.5659 7.20588C29.7662 7.40878 29.8845 7.67434 29.921 8.00256C29.9634 8.32481 29.9847 8.76044 29.9847 9.30946V10.688C29.9847 11.6786 29.6812 12.4783 29.0742 13.087C28.4672 13.6957 27.6478 14 26.616 14Z" fill="white"/>
<path d="M36.3733 13.7136V2.70333H34.3703V0.286445H40.8346V2.70333H38.8316V13.7136H36.3733Z" fill="white"/>
<path d="M44.3029 13.7136L46.8887 0.286445H49.5472L52.0783 13.7136H49.5654L49.2559 11.6189H47.1436L46.8158 13.7136H44.3029ZM47.5078 9.20205H48.8917L48.0541 3.54476H48.3818L47.5078 9.20205Z" fill="white"/>
<path d="M63.5186 0.286445V10.688C63.5186 11.6786 63.2151 12.4783 62.6082 13.087C62.0012 13.6957 61.1818 14 60.1499 14C59.1241 14 58.3047 13.6957 57.6916 13.087C57.0847 12.4783 56.7812 11.6786 56.7812 10.688V0.286445H59.2394V10.688C59.2394 10.9565 59.3183 11.1743 59.4762 11.3414C59.634 11.5026 59.8585 11.5831 60.1499 11.5831C60.4412 11.5831 60.6658 11.5026 60.8236 11.3414C60.9815 11.1743 61.0604 10.9565 61.0604 10.688V0.286445H63.5186Z" fill="white"/>
<path d="M69.4523 13.7136V0.286445H72.8211C73.8529 0.286445 74.6723 0.590792 75.2793 1.19949C75.8863 1.80222 76.1898 2.60188 76.1898 3.59847V5.7468C76.1898 6.37937 76.0623 6.93734 75.8074 7.42072C75.5525 7.90409 75.1883 8.29497 74.7148 8.59335L74.5327 7.80563C75.0608 7.99062 75.4675 8.26513 75.7528 8.62916C76.0441 8.99318 76.1898 9.43478 76.1898 9.95396V13.7136H73.7315V9.95396C73.7315 9.68542 73.6526 9.47059 73.4948 9.30946C73.337 9.14237 73.1124 9.05882 72.8211 9.05882H71.9106V13.7136H69.4523ZM71.9106 6.64194H72.8211C73.1124 6.64194 73.337 6.56138 73.4948 6.40026C73.6526 6.23316 73.7315 6.01535 73.7315 5.7468V3.59847C73.7315 3.32992 73.6526 3.11509 73.4948 2.95396C73.337 2.78687 73.1124 2.70333 72.8211 2.70333H71.9106V6.64194Z" fill="white"/>
<path d="M80.9407 13.7136L83.5264 0.286445H86.185L88.7161 13.7136H86.2032L85.8937 11.6189H83.7814L83.4536 13.7136H80.9407ZM84.1456 9.20205H85.5295L84.6918 3.54476H85.0196L84.1456 9.20205Z" fill="white"/>
<path d="M93.6878 13.7136V0.286445H95.5088L98.6226 8.98721L97.967 9.00512V0.286445H100.243V13.7136H98.4223L95.3085 5.01279L95.964 4.99488V13.7136H93.6878Z" fill="white"/>
<path d="M107.124 13.7136V2.70333H105.121V0.286445H111.585V2.70333H109.582V13.7136H107.124Z" fill="white"/>
<path d="M130.746 9.97187V10.688C130.746 11.6786 130.442 12.4783 129.835 13.087C129.228 13.6957 128.409 14 127.377 14C126.351 14 125.532 13.6957 124.919 13.087C124.312 12.4783 124.008 11.6786 124.008 10.688V3.31202C124.008 2.31543 124.312 1.51577 124.919 0.913043C125.532 0.304348 126.351 0 127.377 0C128.409 0 129.228 0.304348 129.835 0.913043C130.442 1.51577 130.746 2.31543 130.746 3.31202V4.02813H128.287V3.31202C128.287 3.04348 128.208 2.82864 128.051 2.66752C127.893 2.50043 127.668 2.41688 127.377 2.41688C127.085 2.41688 126.861 2.50043 126.703 2.66752C126.545 2.82864 126.466 3.04348 126.466 3.31202V10.688C126.466 10.9565 126.545 11.1743 126.703 11.3414C126.861 11.5026 127.085 11.5831 127.377 11.5831C127.668 11.5831 127.893 11.5026 128.051 11.3414C128.208 11.1743 128.287 10.9565 128.287 10.688V9.97187H130.746Z" fill="white"/>
<path d="M136.059 13.7136V0.286445H139.428C140.46 0.286445 141.279 0.590792 141.886 1.19949C142.493 1.80222 142.797 2.60188 142.797 3.59847V5.7468C142.797 6.37937 142.669 6.93734 142.414 7.42072C142.16 7.90409 141.795 8.29497 141.322 8.59335L141.14 7.80563C141.668 7.99062 142.075 8.26513 142.36 8.62916C142.651 8.99318 142.797 9.43478 142.797 9.95396V13.7136H140.339V9.95396C140.339 9.68542 140.26 9.47059 140.102 9.30946C139.944 9.14237 139.72 9.05882 139.428 9.05882H138.518V13.7136H136.059ZM138.518 6.64194H139.428C139.72 6.64194 139.944 6.56138 140.102 6.40026C140.26 6.23316 140.339 6.01535 140.339 5.7468V3.59847C140.339 3.32992 140.26 3.11509 140.102 2.95396C139.944 2.78687 139.72 2.70333 139.428 2.70333H138.518V6.64194Z" fill="white"/>
<path d="M148.604 13.7136V0.286445H150.789L153.593 10.688H153.011L155.815 0.286445H158V13.7136H155.724V6.89258L156.015 6.94629L154.085 13.7136H152.519L150.589 6.94629L150.88 6.89258V13.7136H148.604Z" fill="white"/>
</svg>
