<svg width="24" height="24" viewBox="0 0 24 24" fill="none" xmlns="http://www.w3.org/2000/svg">
<path d="M9 21H15" stroke="#9E9E9E" stroke-linecap="round"/>
<path d="M12 21V17" stroke="#9E9E9E" stroke-linecap="round"/>
<path d="M6.28613 8.5H17.7139C18.0069 8.5 18.0702 8.50332 18.1113 8.5127C18.2985 8.55545 18.4445 8.70151 18.4873 8.88867C18.4967 8.92975 18.5 8.99307 18.5 9.28613V10C18.5 10.9446 18.4991 11.3686 18.4531 11.7178C18.1282 14.1858 16.1858 16.1282 13.7178 16.4531C13.3686 16.4991 12.9446 16.5 12 16.5C11.0554 16.5 10.6314 16.4991 10.2822 16.4531C7.81419 16.1282 5.8718 14.1858 5.54688 11.7178C5.50092 11.3686 5.5 10.9446 5.5 10V9.28613C5.5 8.99307 5.50332 8.92975 5.5127 8.88867C5.55545 8.7015 5.7015 8.55545 5.88867 8.5127C5.92975 8.50332 5.99307 8.5 6.28613 8.5Z" stroke="#9E9E9E" stroke-linecap="round"/>
<path d="M11.5192 11.8626C11.4434 12.1282 11.5971 12.4049 11.8626 12.4808C12.1282 12.5566 12.4049 12.4029 12.4808 12.1374L12 12L11.5192 11.8626ZM13.7305 5.9432L14.2113 6.08056V6.08056L13.7305 5.9432ZM14.9108 4.63569L14.7251 4.17145V4.17145L14.9108 4.63569ZM14.0845 5.07626L14.4556 5.41129V5.41129L14.0845 5.07626ZM12 12L12.4808 12.1374L14.2113 6.08056L13.7305 5.9432L13.2498 5.80584L11.5192 11.8626L12 12ZM14.9108 4.63569L15.0965 5.09993L19.1857 3.46424L19 3L18.8143 2.53576L14.7251 4.17145L14.9108 4.63569ZM13.7305 5.9432L14.2113 6.08056C14.3571 5.57018 14.3961 5.4772 14.4556 5.41129L14.0845 5.07626L13.7133 4.74122C13.4619 5.01979 13.3686 5.38994 13.2498 5.80584L13.7305 5.9432ZM14.9108 4.63569L14.7251 4.17145C14.3235 4.33209 13.9648 4.46266 13.7133 4.74122L14.0845 5.07626L14.4556 5.41129C14.5151 5.34538 14.6036 5.29706 15.0965 5.09993L14.9108 4.63569Z" fill="#9E9E9E"/>
</svg>
